<svg t="1753111643029" class="icon" viewBox="0 0 1024 1024" version="1.1" xmlns="http://www.w3.org/2000/svg" p-id="7003" width="200" height="200"><path d="M949.76 921.6l-250.88-250.88c104.96-138.24 92.16-337.92-33.28-463.36-138.24-138.24-363.52-138.24-504.32 0-138.24 138.24-138.24 363.52 0 504.32 66.56 66.56 156.16 104.96 250.88 104.96 76.8 0 151.04-25.6 212.48-71.68l250.88 250.88c10.24 10.24 23.04 15.36 35.84 15.36s25.6-5.12 35.84-15.36c23.04-23.04 23.04-53.76 2.56-74.24z m-535.04-209.92c-66.56 0-130.56-25.6-179.2-74.24-99.84-99.84-99.84-258.56 0-358.4C284.16 230.4 350.72 204.8 414.72 204.8s130.56 25.6 179.2 74.24c99.84 99.84 99.84 258.56 0 358.4-48.64 48.64-112.64 74.24-179.2 74.24z" p-id="7004"></path></svg>